<?xml version="1.0" encoding="utf-8"?>
<!-- Generator: Adobe Illustrator 28.0.0, SVG Export Plug-In . SVG Version: 6.00 Build 0)  -->
<svg version="1.1" id="Слой_1" xmlns="http://www.w3.org/2000/svg" xmlns:xlink="http://www.w3.org/1999/xlink" x="0px" y="0px"
	 viewBox="0 0 952.0078735 1000" enable-background="new 0 0 952.0078735 1000" xml:space="preserve">
<g>
	<g>
		<path fill="#675DA9" d="M843.3178711,96.6422043C820.4302979,73.7546387,719.7249756,0.5144342,495.4268188,0.5144342
			c0,0-265.4957581-13.7325373-393.6661377,100.7052841C28.5205193,169.8824158,5.6329532,275.1652222,1.0554389,407.9130859
			C-3.5220754,536.0834961-3.5220754,783.269165,229.9311066,847.3543091l0,0v100.7053833c0,0,0,41.1975708,27.4650726,50.3526611
			c32.042572,9.1550293,50.3526306-22.8875732,82.3952332-54.9302368
			c18.3100281-18.3099976,41.1976013-45.7750854,59.5076599-64.085144
			c160.2129517,13.7324829,283.8058472-18.3100586,297.5383911-22.8875732
			c32.0426636-9.1550903,215.1431885-32.0426025,247.18573-279.2283325
			C971.4882812,325.5178528,925.7131348,165.3049011,843.3178711,96.6422043z M870.782959,558.9710693
			C843.3178711,760.3815918,696.8374634,774.1141968,669.3723755,783.269165
			c-13.7325439,4.5775146-119.0153198,32.0426636-256.3407593,22.8875732c0,0-100.7052612,123.5928955-132.7478638,155.635437
			c-4.5775146,4.5775146-9.1550293,9.1550293-13.7325439,4.5775146c-4.5775146,0-9.1550293-9.1550293-9.1550293-18.3099976
			c0-13.7325439,0-169.368042,0-169.368042l0,0C60.5630989,723.7614746,69.7181396,517.7733765,74.2956467,407.9130554
			c0-109.8602905,22.8875656-196.8330841,82.3952255-256.3407593
			C266.5512085,50.8670197,490.8493347,69.1770859,490.8493347,69.1770859
			c187.678009,0,279.228302,59.5076828,302.1158752,77.8177261
			C861.6278687,206.502533,898.2480469,348.405426,870.782959,558.9710693z"/>
	</g>
	<g>
		<path fill="#675DA9" d="M586.9771118,412.4906311c-4.5775146,0-13.7325439-4.5775452-13.7325439-13.7325439
			c0-41.1976013-22.8875122-64.0851746-64.085144-64.0851746c-9.1550293,0-13.7325439-4.5775452-13.7325439-13.7325439
			c0-9.1550293,4.5775146-13.7325439,13.7325439-13.7325439c54.9301758,4.5775146,86.9727173,32.042572,86.9727173,91.5502625
			C600.7097168,407.9130859,596.1321411,412.4906311,586.9771118,412.4906311L586.9771118,412.4906311z"/>
	</g>
	<g>
		<path fill="#675DA9" d="M651.0623169,435.3782043L651.0623169,435.3782043
			c-9.1550293,0-13.7325439-4.5775452-13.7325439-13.7325745c0-41.1976013-9.1550293-77.817688-36.6201172-105.2828064
			c-27.4650879-27.4650879-64.0852051-45.775116-109.8603516-45.775116c-9.1550293,0-13.7325439-4.5775452-13.7325439-13.7325439
			c0-9.1550293,4.5775146-13.7325592,13.7325439-13.7325592c54.9301758,4.5775299,96.1278076,22.887558,128.1703491,54.9301605
			c32.0426025,32.042572,45.7751465,73.2402039,45.7751465,123.5928345
			C664.7948608,430.8006592,660.2173462,435.3782043,651.0623169,435.3782043z"/>
	</g>
	<g>
		<path fill="#675DA9" d="M719.7250366,462.8432312c-9.1550293,0-13.7324829-4.5775146-13.7324829-13.7325439
			c0-77.8177185-22.8875732-137.3253784-68.6627197-178.5230408
			c-45.7751465-45.7751312-100.7052612-64.0851746-169.367981-68.6626892c-9.1549988,0-13.7325439-4.5775146-13.7325439-13.7325439
			s4.5775452-13.7325592,13.7325439-13.7325592l0,0c73.2402344,0,137.3254395,27.4650726,187.6780396,73.2402344
			c50.3526611,50.3526764,73.2402344,114.4378204,77.817749,196.8330841
			C728.8800049,453.6882324,724.3024902,462.8432312,719.7250366,462.8432312L719.7250366,462.8432312z"/>
	</g>
	<g>
		<path fill="#675DA9" d="M513.7369385,572.7036133c0,0,18.3099976,0,27.4650879-9.1550293l18.3099976-22.8875732
			c9.1550293-13.7325439,32.0426025-18.3100586,50.3526611-9.1550293
			c13.7325439,4.5775146,32.0426025,18.3100586,45.7751465,27.4650879s41.1976318,36.6201172,41.1976318,36.6201172
			c13.7325439,13.7325439,18.3100586,27.4650879,9.1550903,45.7751465l0,0
			c-9.1550903,18.3100586-22.8875732,32.0426025-36.6201172,45.7751465l0,0
			c-13.7325439,9.1550293-27.4650879,18.3099976-41.1976318,18.3099976H623.59729c-4.5775146,0-9.1550293,0-18.3099976-4.5775146
			l0,0c-18.3100586-4.5775146-54.9301758-18.3100586-109.8603821-50.3526611
			c-36.6201172-18.3100586-64.085144-41.1975708-91.5502625-59.5076904
			c-9.1550598-4.5774536-22.8876038-18.3099976-36.6201477-32.0425415l0,0l0,0l0,0l0,0l0,0l0,0
			c-13.7325439-13.732605-27.4650879-27.4651489-36.6201172-41.1976318
			c-18.3100586-27.4650879-41.1976318-54.9301453-59.5076904-91.5502625
			c-32.042572-54.9301453-45.775116-86.9727478-50.3526306-109.8602905l0,0c0-4.5775452-4.5775146-9.1550293-4.5775146-18.3100586
			c0-4.5775146,0-4.5775146,0-4.5775146c0-13.7325439,9.1550293-27.4650879,18.3100586-41.1976013l0,0
			c13.7325592-18.3100586,32.0426025-27.4650726,45.7751465-36.6201172l0,0
			c18.3100586-9.155014,36.6201172-4.5775146,45.7751465,9.155014c0,0,22.8875732,27.4651031,36.6201172,41.1976166
			c9.1549988,13.7325439,22.8875732,36.6200867,27.4650879,45.775116
			c13.7325439,22.8875732,4.5775452,41.1976013-9.1550293,50.3526611l-22.8875427,18.3100281
			c-13.7325439,9.1550293-9.1550293,27.4651184-9.1550293,27.4651184S380.9890442,536.0834961,513.7369385,572.7036133z"/>
	</g>
</g>
</svg>
